<svg width="258" height="68" viewBox="0 0 258 68" fill="none" xmlns="http://www.w3.org/2000/svg">
<path d="M7.25 43.5L22.4062 45.7812L20.75 52.5938L16.0312 51.9688C9.09375 51.0104 3.88542 50.0625 0.40625 49.125L0 13.0938C7.35417 11.2188 14.3542 9.95833 21 9.3125L22.0938 16.75L7.125 18.4688L7.4375 27.8125L20.875 27.25L20.375 34.5938L7.5 34.1562L7.25 43.5Z" fill="#2B6CB0"/>
<path d="M27.25 41.75L45.0312 18.7812L44.2812 17.3125H43.4375C38.4167 17.3125 33.2083 16.8438 27.8125 15.9062L29.0312 9L33.9062 9.53125C40.7812 10.2604 46.2812 10.6771 50.4062 10.7812L53.25 19.4375L49.4688 24.7188L44.9688 30.7188L40.1875 36.8125L35.625 42.4688L36.0312 43.6875H37C42 43.6875 47.2604 44.1771 52.7812 45.1562L51.625 52.25C49.8125 52.1042 47.9479 51.9271 46.0312 51.7188L34.5938 50.5938C32.7188 50.4271 30.9375 50.2812 29.25 50.1562L27.25 41.75Z" fill="#2B6CB0"/>
<path d="M66.4375 27.9688C66.5625 25.3438 66.7604 22.8542 67.0312 20.5C67.0312 20.5 67.2292 18.7604 67.625 15.2812C67.7708 14.1562 67.8958 13.0104 68 11.8438C72.4792 10.5938 77.1042 9.8125 81.875 9.5L86.4062 28.25L87.875 42.9688L89.2188 42.8438L92.125 11.7812C95.0833 10.7396 98.6667 10 102.875 9.5625C104.167 9.4375 105.375 9.375 106.5 9.375L110.438 28.875L113.25 49.9375L105.156 50.7812L102.688 29.5938L100.625 16.0625L98.7188 16.3125L97.4375 29.9062L94.4062 49.0938C90.8229 49.7604 86.8646 50.1458 82.5312 50.25L76 16.4688L73.9375 16.7812L73.6875 29.3125L71.8125 50.5938L64 49.625L66.4375 27.9688Z" fill="#EBF8FF"/>
<path d="M139.781 52.25C131.198 51.375 124.469 50.0729 119.594 48.3438C118.698 48.0104 118.104 46.0938 117.812 42.5938C117.562 39.3854 117.833 36.6042 118.625 34.25C118.958 33.2708 119.354 32.7292 119.812 32.625C121.771 32.1042 123.833 31.7292 126 31.5L132.5 30.7812L132.375 26.375C130.104 25.9375 127.844 25.5938 125.594 25.3438C123.365 25.0729 121.146 24.7604 118.938 24.4062L120.594 17.5625L125.875 18.3438C130.708 19.0521 134.552 19.9167 137.406 20.9375C138.781 21.4375 139.469 22.4479 139.469 23.9688L139.594 41.0938L132.938 41.75L132.75 36.4062L130.969 36.75C128.969 37.0833 127.062 37.5 125.25 38C125.021 39.1042 124.906 40.0208 124.906 40.75C124.906 41.8125 124.948 42.6354 125.031 43.2188C127.969 43.8854 132.5 44.5625 138.625 45.25L141.188 45.5312L139.781 52.25Z" fill="#EBF8FF"/>
<path d="M147.406 20.125L154.062 19.2812L155.156 24.0312L160.656 19.2812H168.344C168.74 19.2812 169.292 19.5833 170 20.1875C171.188 21.1667 171.781 22.0417 171.781 22.8125L170.688 50.0625L163.719 50.625L163.594 26.5C163.344 26.4167 163 26.375 162.562 26.375C162.125 26.375 161.719 26.3958 161.344 26.4375C160.99 26.4792 160.604 26.5417 160.188 26.625C159.208 26.7917 158.406 26.9896 157.781 27.2188L155.469 28.0625L154.625 49.75L147.969 50.25L147.406 20.125Z" fill="#EBF8FF"/>
<path d="M188.5 43.4062C191.25 43.4062 193.406 43.3021 194.969 43.0938L194.844 29.7812L201.812 28.5C201.896 32.5208 201.958 35.9583 202 38.8125C202.062 41.6458 202.115 44.0312 202.156 45.9688C202.198 47.9062 202.229 49.4479 202.25 50.5938L202.312 53.25C202.312 53.8542 202.312 54.25 202.312 54.4375V54.8125C202.312 55.875 201.521 56.9688 199.938 58.0938C195.104 61.4896 190.177 64.5104 185.156 67.1562L181.344 60.3125C188.156 57.125 192.896 54.7604 195.562 53.2188L195.094 46.0938L190.625 50H185.438C183.958 50 182.979 49.5 182.5 48.5L182.062 47.5625C180.167 43 179.219 37.1667 179.219 30.0625C179.219 26 179.521 23.4375 180.125 22.375C180.354 21.9583 181.031 21.5833 182.156 21.25C183.302 20.8958 184.729 20.5208 186.438 20.125C188.167 19.7083 189.917 19.3229 191.688 18.9688C193.458 18.6146 195.229 18.2812 197 17.9688L202.156 17.0312L203.688 24.2188L193.844 25.75C190.219 26.3333 187.969 26.7812 187.094 27.0938C186.885 27.9271 186.781 29.0833 186.781 30.5625C186.781 35.8958 187.354 40.1771 188.5 43.4062Z" fill="#EBF8FF"/>
<path d="M215.812 11.875L224.844 0.34375L230.281 5.46875C229.26 6.94792 227.729 8.5625 225.688 10.3125C222.917 12.5833 220.75 14.1771 219.188 15.0938L215.812 11.875ZM231.594 52.25C223.01 51.375 216.281 50.0729 211.406 48.3438C210.51 48.0104 209.917 46.0938 209.625 42.5938C209.375 39.3854 209.646 36.6042 210.438 34.25C210.771 33.2708 211.167 32.7292 211.625 32.625C213.583 32.1042 215.646 31.7292 217.812 31.5L224.312 30.7812L224.188 26.375C221.917 25.9375 219.656 25.5938 217.406 25.3438C215.177 25.0729 212.958 24.7604 210.75 24.4062L212.406 17.5625L217.688 18.3438C222.521 19.0521 226.365 19.9167 229.219 20.9375C230.594 21.4375 231.281 22.4479 231.281 23.9688L231.406 41.0938L224.75 41.75L224.562 36.4062L222.781 36.75C220.781 37.0833 218.875 37.5 217.062 38C216.833 39.1042 216.719 40.0208 216.719 40.75C216.719 41.8125 216.76 42.6354 216.844 43.2188C219.781 43.8854 224.312 44.5625 230.438 45.25L233 45.5312L231.594 52.25Z" fill="#EBF8FF"/>
<path d="M237.531 45C237.531 45 239.76 44.8646 244.219 44.5938C246.281 44.4688 248.354 44.2604 250.438 43.9688L250.656 40.0312L239.688 35.7188C239.042 35.4688 238.552 34.9896 238.219 34.2812C237.885 33.5521 237.719 32.9792 237.719 32.5625C237.719 32.1458 237.719 31.8854 237.719 31.7812C237.74 31.6562 237.771 31.375 237.812 30.9375L238.5 25.0312C238.708 23.3646 239.552 22.2083 241.031 21.5625C241.948 21.1458 243.104 20.7708 244.5 20.4375C247.354 19.7708 249.354 19.3229 250.5 19.0938L253.531 18.4375C254.406 18.2708 255.188 18.125 255.875 18L257.312 25.1562L245.125 26.9688L244.625 29.9688L256.156 35.3438C257.552 35.9896 258.146 37.2292 257.938 39.0625L257.094 46.5938C256.906 48.1979 255.604 49.2708 253.188 49.8125C250.604 50.5208 247.74 51.0417 244.594 51.375C241.469 51.7292 239.406 51.9271 238.406 51.9688L237.531 45Z" fill="#EBF8FF"/>
</svg>
